# xmcd
#
# Track frame offsets:
#	150
#	14814
#	30192
#	46094
#	60793
#	75594
#	91274
#	106012
#	120708
#	136206
#
# Disc length: 1992 seconds
#
# Revision: 0
# Processed by: cddbd v1.5.2PL0 Copyright (c) Steve Scherf et al.
# Submitted via: EasyCDDAExtractor 16.0.6.1
#
DISCID=6807c60a
DTITLE=Συλλογικός δίσκος - Λαϊκό τραγούδι 1954-1967, 1958-1
DYEAR=2008
DGENRE=Λαϊκή
TTITLE0=Καζαντζίδης Στέλιος-Μαρινέλλα - Κόκκινο, μαύρο [Απόστολος Καλδάρας-Κώσ
TTITLE0=τας Βίρβος]
TTITLE1=Γκρέϋ Καίτη - Τα φράγκα μου χαλάω [Γιάννης Παπαϊωάννου]
TTITLE2=Γαβαλάς Πάνος - Ανάψτε φλόγες [Τάκης Λαβίδας-Λ. Καραγεωργίου]
TTITLE3=Μπιθικώτσης Γρηγόρης-Τσιτσάνης Β.-Νέγκρη Πίτσα - Εβίβα [Βασίλης Τσιτσά
TTITLE3=νης-Νίκος Τουρκάκης]
TTITLE4=Καζαντζίδης Στέλιος - Στο πιο όμορφο χαρέμι [Βασίλης Καραπατάκης-Χρήστ
TTITLE4=ος Κολοκοτρώνης]
TTITLE5=Τσαουσάκης Πρόδρομος - Στην κοινωνία δεν βρίσκεις άκρη [Θεόδωρος Δερβε
TTITLE5=νιώτης]
TTITLE6=Αγγελόπουλος Μανώλης - Τα μάτια σου τα όμορφα [Ηλίας Εσδράς-Χρήστος Κο
TTITLE6=λοκοτρώνης]
TTITLE7=Λύδια Γιώτα - Σ' άλλους δρόμους θα βαδίσω [Βασίλης Τιστάνης-Κώστας Βίρ
TTITLE7=βος]
TTITLE8=Καζαντζίδης Στέλιος - Σαν τον πουλημένο σκλάβο [Στέλιος Καζαντζίδης-Ευ
TTITLE8=τ. Παπαγιαννοπούλου]
TTITLE9=Καζαντζίδης Στέλιος - Βγάλτε το παλληκάρι [Θεόδωρος Δερβενιώτης-Χρήστο
TTITLE9=ς Κολοκοτρώνης]
EXTD=
EXTT0=
EXTT1=
EXTT2=
EXTT3=
EXTT4=
EXTT5=
EXTT6=
EXTT7=
EXTT8=
EXTT9=
PLAYORDER=
